<svg id="wave" style="transform:rotate(0deg); transition: 0.3s" viewBox="0 0 1440 490" version="1.1" xmlns="http://www.w3.org/2000/svg">
  <defs>
    <linearGradient id="sw-gradient-0" x1="0" x2="0" y1="1" y2="0">
      <stop stop-color="rgba(62, 224.606, 243, 1)" offset="0%"></stop>
      <stop stop-color="rgba(11, 213.673, 255, 1)" offset="100%"></stop>
    </linearGradient>
    <pattern id="wave-pattern" x="0" y="0" width="1440" height="490" patternUnits="userSpaceOnUse">
      <path fill="url(#sw-gradient-0)"
        d="M-10,392L10.4,334.8C20.9,278,42,163,63,98C83.5,33,104,16,125,57.2C146.1,98,167,196,188,253.2C208.7,310,230,327,250,326.7C271.3,327,292,310,313,294C333.9,278,355,261,376,261.3C396.5,261,417,278,438,277.7C459.1,278,480,261,501,212.3C521.7,163,543,82,563,89.8C584.3,98,605,196,626,269.5C647,343,668,392,689,408.3C709.6,425,730,408,751,351.2C772.2,294,793,196,814,171.5C834.8,147,856,196,877,204.2C897.4,212,918,180,939,212.3C960,245,981,343,1002,367.5C1022.6,392,1043,343,1064,334.8C1085.2,327,1106,359,1127,343C1147.8,327,1169,261,1190,269.5C1210.4,278,1231,359,1252,400.2C1273,441,1294,441,1315,416.5C1335.7,392,1357,343,1377,334.8C1398.3,327,1419,359,1440,367.5C1460.9,376,1482,359,1492,351.2L1502.6,343L1502.6,490L1492.2,490C1481.7,490,1461,490,1440,490C1419.1,490,1398,490,1377,490C1356.5,490,1336,490,1315,490C1293.9,490,1273,490,1252,490C1231.3,490,1210,490,1190,490C1168.7,490,1148,490,1127,490C1106.1,490,1085,490,1064,490C1043.5,490,1023,490,1002,490C980.9,490,960,490,939,490C918.3,490,897,490,877,490C855.7,490,835,490,814,490C793,490,772,490,751,490C730.4,490,710,490,689,490C667.8,490,647,490,626,490C605.2,490,584,490,563,490C542.6,490,522,490,501,490C480,490,459,490,438,490C417.4,490,397,490,376,490C354.8,490,334,490,313,490C292.2,490,271,490,250,490C229.6,490,209,490,188,490C167,490,146,490,125,490C104.3,490,83,490,63,490C41.7,490,21,490,10,490Z"></path>
    </pattern>
  </defs>
  <rect width="100%" height="100%" fill="url(#wave-pattern)" />
</svg>
